<mxfile host="app.diagrams.net" modified="2022-04-17T06:38:05.035Z" agent="5.0 (Windows NT 10.0; Win64; x64) AppleWebKit/537.36 (KHTML, like Gecko) Chrome/100.0.4896.75 Safari/537.36 Edg/100.0.1185.36" etag="ruihLgFbqq8usdpAbqxV" version="17.4.5" type="github">
  <diagram id="hep7tsMwZcl1I1rKCo-p" name="Page-1">
    <mxGraphModel dx="1071" dy="668" grid="1" gridSize="10" guides="1" tooltips="1" connect="1" arrows="1" fold="1" page="1" pageScale="1" pageWidth="827" pageHeight="1169" math="0" shadow="0">
      <root>
        <mxCell id="0" />
        <mxCell id="1" parent="0" />
        <mxCell id="d8pUTfJmepYZO-cgQVru-2" value="" style="whiteSpace=wrap;html=1;aspect=fixed;" vertex="1" parent="1">
          <mxGeometry x="290" y="90" width="420" height="420" as="geometry" />
        </mxCell>
        <mxCell id="d8pUTfJmepYZO-cgQVru-4" value="" style="verticalLabelPosition=bottom;html=1;verticalAlign=top;align=center;strokeColor=#666666;fillColor=#f5f5f5;shape=mxgraph.azure.azure_load_balancer;fontColor=#333333;" vertex="1" parent="1">
          <mxGeometry x="80" y="150" width="85" height="55" as="geometry" />
        </mxCell>
        <mxCell id="d8pUTfJmepYZO-cgQVru-7" value="Azure Load Balancer" style="text;html=1;align=center;verticalAlign=middle;resizable=0;points=[];autosize=1;strokeColor=none;fillColor=none;" vertex="1" parent="1">
          <mxGeometry x="60" y="220" width="140" height="20" as="geometry" />
        </mxCell>
        <mxCell id="d8pUTfJmepYZO-cgQVru-9" value="&lt;font style=&quot;font-size: 19px&quot;&gt;Windows Server&lt;/font&gt;" style="text;html=1;align=center;verticalAlign=middle;resizable=0;points=[];autosize=1;strokeColor=none;fillColor=none;" vertex="1" parent="1">
          <mxGeometry x="339" y="100" width="150" height="20" as="geometry" />
        </mxCell>
        <mxCell id="d8pUTfJmepYZO-cgQVru-10" value="Biz Web API Health endpoint" style="aspect=fixed;html=1;points=[];align=center;image;fontSize=12;image=img/lib/azure2/general/Service_Health.svg;" vertex="1" parent="1">
          <mxGeometry x="590" y="126" width="68" height="64" as="geometry" />
        </mxCell>
        <mxCell id="d8pUTfJmepYZO-cgQVru-11" value="Health Monitoring &lt;br&gt;Web API" style="aspect=fixed;html=1;points=[];align=center;image;fontSize=12;image=img/lib/azure2/general/Service_Health.svg;" vertex="1" parent="1">
          <mxGeometry x="356.40999999999997" y="209.78" width="53.59" height="50.44" as="geometry" />
        </mxCell>
        <mxCell id="d8pUTfJmepYZO-cgQVru-14" value="Biz Web API Health endpoint" style="aspect=fixed;html=1;points=[];align=center;image;fontSize=12;image=img/lib/azure2/general/Service_Health.svg;" vertex="1" parent="1">
          <mxGeometry x="590" y="220" width="68" height="64" as="geometry" />
        </mxCell>
        <mxCell id="d8pUTfJmepYZO-cgQVru-15" value="Biz Web API Health endpoint" style="aspect=fixed;html=1;points=[];align=center;image;fontSize=12;image=img/lib/azure2/general/Service_Health.svg;" vertex="1" parent="1">
          <mxGeometry x="590" y="330" width="68" height="64" as="geometry" />
        </mxCell>
        <mxCell id="d8pUTfJmepYZO-cgQVru-20" value="" style="html=1;shadow=0;dashed=0;align=center;verticalAlign=middle;shape=mxgraph.arrows2.twoWayArrow;dy=0.65;dx=22;fontSize=19;" vertex="1" parent="1">
          <mxGeometry x="410" y="230" width="180" height="10" as="geometry" />
        </mxCell>
        <mxCell id="d8pUTfJmepYZO-cgQVru-21" value="" style="html=1;shadow=0;dashed=0;align=center;verticalAlign=middle;shape=mxgraph.arrows2.twoWayArrow;dy=0.65;dx=22;fontSize=19;rotation=-25;" vertex="1" parent="1">
          <mxGeometry x="400" y="180" width="196" height="10" as="geometry" />
        </mxCell>
        <mxCell id="d8pUTfJmepYZO-cgQVru-33" value="" style="html=1;shadow=0;dashed=0;align=center;verticalAlign=middle;shape=mxgraph.arrows2.twoWayArrow;dy=0.65;dx=22;fontSize=19;rotation=30;" vertex="1" parent="1">
          <mxGeometry x="399.27" y="287.58" width="209.15" height="12.52" as="geometry" />
        </mxCell>
      </root>
    </mxGraphModel>
  </diagram>
</mxfile>
